<svg  xmlns="http://www.w3.org/2000/svg" style='display: none' >

<symbol id="chevron-down" viewBox="0 0 30 32">
<path fill="none" stroke-width="2.8235" d="M7.529 12.235l7.529 7.529 7.529-7.529"></path>
</symbol>
<symbol id="menu" viewBox="0 0 32 32">
<path fill="none" stroke-width="2.6667" d="M4 16h24"></path>
<path fill="none" stroke-width="2.6667" d="M4 8h24"></path>
<path fill="none" stroke-width="2.6667" d="M4 24h24"></path>
</symbol>
<symbol id="hexagon" viewBox="0 0 32 32">
<path fill="none" stroke-width="2.6667" d="M14.964 3.242c0.378-0.21 0.567-0.315 0.767-0.356 0.177-0.036 0.36-0.036 0.537 0 0.2 0.041 0.389 0.146 0.767 0.356l9.867 5.481c0.399 0.222 0.599 0.333 0.744 0.491 0.129 0.14 0.226 0.305 0.285 0.485 0.067 0.204 0.067 0.432 0.067 0.889v10.823c0 0.457 0 0.685-0.067 0.889-0.060 0.18-0.157 0.346-0.285 0.485-0.145 0.158-0.345 0.269-0.744 0.491l-9.867 5.481c-0.378 0.21-0.567 0.315-0.767 0.356-0.177 0.036-0.36 0.036-0.537 0-0.2-0.041-0.389-0.146-0.767-0.356l-9.867-5.481c-0.399-0.222-0.599-0.333-0.744-0.491-0.129-0.14-0.226-0.305-0.286-0.485-0.067-0.204-0.067-0.432-0.067-0.889v-10.823c0-0.457 0-0.685 0.067-0.889 0.060-0.18 0.157-0.346 0.286-0.485 0.145-0.158 0.345-0.269 0.744-0.491l9.867-5.481z"></path>
</symbol>
<symbol id="colors" viewBox="0 0 32 32">
<path fill="none" stroke-width="2.6667" d="M16 27.296c1.415 1.267 3.284 2.037 5.333 2.037 4.418 0 8-3.582 8-8 0-3.689-2.497-6.795-5.893-7.72M8.56 13.614c-3.396 0.925-5.894 4.031-5.894 7.72 0 4.418 3.582 8 8 8s8-3.582 8-8c0-1.041-0.199-2.035-0.56-2.947M24 10.667c0 4.418-3.582 8-8 8s-8-3.582-8-8 3.582-8 8-8c4.418 0 8 3.582 8 8z"></path>
</symbol>
<symbol id="lightning" viewBox="0 0 32 32">
<path stroke-width="2.6667" d="M18.999 2.667h-7.674c-0.239 0-0.359 0-0.465 0.036-0.093 0.032-0.178 0.085-0.249 0.154-0.080 0.078-0.133 0.185-0.24 0.399l-5.6 11.2c-0.256 0.511-0.383 0.767-0.353 0.974 0.027 0.181 0.127 0.344 0.277 0.449 0.172 0.12 0.458 0.12 1.029 0.12h8.274l-4 13.333 16.258-16.86c0.548-0.569 0.823-0.853 0.839-1.097 0.014-0.211-0.073-0.417-0.235-0.553-0.186-0.157-0.581-0.157-1.372-0.157h-9.49l3-8z"></path>
</symbol>
<symbol id="container" viewBox="0 0 32 32">
<path fill="none" stroke-width="2.6667" d="M27.333 9.704l-11.333 6.296M16 16l-11.333-6.296M16 16l0 12.667M28 21.411v-10.823c0-0.457 0-0.685-0.067-0.889-0.060-0.18-0.157-0.346-0.285-0.485-0.145-0.158-0.345-0.269-0.744-0.491l-9.867-5.481c-0.378-0.21-0.567-0.315-0.767-0.356-0.177-0.036-0.36-0.036-0.537 0-0.2 0.041-0.389 0.146-0.767 0.356l-9.867 5.481c-0.399 0.222-0.599 0.333-0.744 0.491-0.129 0.14-0.226 0.305-0.286 0.485-0.067 0.204-0.067 0.432-0.067 0.889v10.823c0 0.457 0 0.685 0.067 0.889 0.060 0.18 0.157 0.346 0.286 0.485 0.145 0.158 0.345 0.269 0.744 0.491l9.867 5.481c0.378 0.21 0.567 0.315 0.767 0.356 0.177 0.036 0.36 0.036 0.537 0 0.2-0.041 0.389-0.146 0.767-0.356l9.867-5.481c0.399-0.222 0.599-0.333 0.744-0.491 0.129-0.14 0.226-0.305 0.285-0.485 0.067-0.204 0.067-0.432 0.067-0.889z"></path>
</symbol>
<symbol id="puzzle-piece" viewBox="0 0 32 32">
<path fill="none" stroke-width="2.6667" d="M16 2.667l4.8 4.8c3.2-8.4 12.133 0.533 3.733 3.733l4.8 4.8-4.8 4.8c-3.2-8.4-12.133 0.533-3.733 3.733l-4.8 4.8-4.8-4.8c-3.2 8.4-12.133-0.533-3.733-3.733l-4.8-4.8 4.8-4.8c3.2 8.4 12.133-0.533 3.733-3.733l4.8-4.8z"></path>
</symbol>
<symbol id="loading" viewBox="0 0 32 32">
<path fill="none"  stroke-width="2.6667" d="M4.454 22.666c-1.67-2.893-0.821-6.58 1.944-8.453l0.003-0.003c2.221-1.501 5.143-1.45 7.312 0.126l4.576 3.327c2.167 1.576 5.090 1.627 7.312 0.126l0.003-0.003c2.766-1.872 3.616-5.563 1.943-8.453M22.669 27.546c-2.893 1.669-6.58 0.821-8.453-1.944l-0.003-0.003c-1.501-2.221-1.45-5.143 0.126-7.312l3.327-4.576c1.576-2.167 1.627-5.090 0.126-7.312l-0.006-0.003c-1.872-2.763-5.563-3.615-8.453-1.942M25.427 6.572c5.207 5.207 5.207 13.648 0 18.855s-13.648 5.207-18.855 0c-5.207-5.207-5.207-13.648 0-18.855s13.648-5.207 18.855 0z"></path>
</symbol>
<symbol id="star" viewBox="0 0 32 32">
<path fill="none" stroke-width="2.6667" stroke="#000" d="M16 2.667l2.683 6.975c0.376 0.978 0.564 1.466 0.856 1.878 0.259 0.364 0.577 0.683 0.942 0.942 0.411 0.292 0.9 0.48 1.878 0.856l6.975 2.683-6.975 2.683c-0.978 0.376-1.466 0.564-1.878 0.856-0.364 0.259-0.683 0.577-0.942 0.942-0.292 0.411-0.48 0.9-0.856 1.878l-2.683 6.975-2.683-6.975c-0.376-0.978-0.564-1.466-0.856-1.878-0.259-0.364-0.578-0.683-0.942-0.942-0.411-0.292-0.9-0.48-1.878-0.856l-6.975-2.683 6.975-2.683c0.978-0.376 1.466-0.564 1.878-0.856 0.364-0.259 0.683-0.578 0.942-0.942 0.292-0.411 0.48-0.9 0.856-1.878l2.683-6.975z"></path>
</symbol>
<symbol id="project" viewBox="0 0 32 32">
<path fill="none"  stroke-width="2.6667" d="M4.396 6.978c0.301-1.281 1.301-2.282 2.582-2.582v0c1.11-0.26 2.266-0.26 3.377 0v0c1.281 0.301 2.282 1.301 2.582 2.582v0c0.26 1.11 0.26 2.266 0 3.377v0c-0.301 1.281-1.301 2.282-2.582 2.582v0c-1.11 0.26-2.266 0.26-3.377 0v0c-1.281-0.301-2.282-1.301-2.582-2.582v0c-0.26-1.11-0.26-2.266 0-3.377v0z"></path>
<path fill="none"  stroke-width="2.6667" d="M4.396 21.645c0.301-1.281 1.301-2.282 2.582-2.582v0c1.11-0.261 2.266-0.261 3.377 0v0c1.281 0.3 2.282 1.301 2.582 2.582v0c0.26 1.111 0.26 2.266 0 3.377v0c-0.301 1.281-1.301 2.282-2.582 2.582v0c-1.11 0.261-2.266 0.261-3.377 0v0c-1.281-0.3-2.282-1.301-2.582-2.582v0c-0.26-1.111-0.26-2.266 0-3.377v0z"></path>
<path fill="none"  stroke-width="2.6667" d="M19.063 6.978c0.3-1.281 1.301-2.282 2.582-2.582v0c1.111-0.26 2.266-0.26 3.377 0v0c1.281 0.301 2.282 1.301 2.582 2.582v0c0.261 1.11 0.261 2.266 0 3.377v0c-0.3 1.281-1.301 2.282-2.582 2.582v0c-1.111 0.26-2.266 0.26-3.377 0v0c-1.281-0.301-2.282-1.301-2.582-2.582v0c-0.261-1.11-0.261-2.266 0-3.377v0z"></path>
<path fill="none"  stroke-width="2.6667" d="M19.063 21.645c0.3-1.281 1.301-2.282 2.582-2.582v0c1.111-0.261 2.266-0.261 3.377 0v0c1.281 0.3 2.282 1.301 2.582 2.582v0c0.261 1.111 0.261 2.266 0 3.377v0c-0.3 1.281-1.301 2.282-2.582 2.582v0c-1.111 0.261-2.266 0.261-3.377 0v0c-1.281-0.3-2.282-1.301-2.582-2.582v0c-0.261-1.111-0.261-2.266 0-3.377v0z"></path>
</symbol>
<symbol id="trash" viewBox="0 0 32 32">
<path fill="none" stroke-width="2"  d="M12 4h8"></path>
<path fill="none" stroke-width="2"  d="M4 8h24"></path>
<path fill="none" stroke-width="2"  d="M6.667 8l0.801 12.018c0.149 2.231 0.223 3.347 0.588 4.243 0.662 1.627 2.004 2.883 3.672 3.435 0.919 0.304 2.037 0.304 4.273 0.304v0c2.236 0 3.354 0 4.273-0.304 1.668-0.552 3.010-1.808 3.672-3.435 0.365-0.896 0.439-2.012 0.588-4.243l0.801-12.018"></path>
</symbol>
<symbol id="logo" viewBox="0 0 20 20" > // -зміна кольру через fill !!!-
<path d="M3.331 15.027c.246-1.272.454-2.61.748-3.949.145-.7-.031-1-.814-.946-.784.054-1.657.027-2.49 0-.833-.026-.982-.446-.503-1.044C2.635 6.17 5.025 3.288 7.406.415 7.672.089 7.98-.143 8.42.102c.438.246.348.55.275.915-.262 1.339-.48 2.677-.77 3.989-.149.678.046.92.752.892a21.143 21.143 0 0 1 2.128 0c.403 0 .932-.21 1.14.34.209.548-.23.78-.452 1.106a304.22 304.22 0 0 1-2.752 3.342 1552.39 1552.39 0 0 0-4.05 4.854c-.263.317-.557.571-1.006.41-.448-.16-.353-.54-.353-.923z"/>
</symbol>
<symbol id="broken-right" viewBox="0 0 32 32">
<path fill="none" stroke-width="2.6" d="M4.45 9.333c2.305-3.985 6.614-6.667 11.55-6.667 7.364 0 13.333 5.97 13.333 13.333s-5.97 13.333-13.333 13.333c-4.935 0-9.244-2.681-11.55-6.667"></path>
<path fill="none" stroke-width="2.6" d="M16 21.333l5.333-5.333-5.333-5.333"></path>
<path fill="none" stroke-width="2.6" d="M2.667 16h18.667"></path>
</symbol>
<symbol id="user-avatar" viewBox="0 0 37 32">
<path d="M26.445 7.556c0 4.173-3.383 7.556-7.556 7.556s-7.556-3.383-7.556-7.556c0-4.173 3.383-7.556 7.556-7.556s7.556 3.383 7.556 7.556z"></path>
<path d="M37.169 33.208c0-2.441-0.481-4.857-1.415-7.112s-2.303-4.303-4.029-6.029c-1.726-1.726-3.774-3.095-6.029-4.029s-4.671-1.415-7.112-1.415c-2.44 0-4.857 0.481-7.112 1.415s-4.303 2.303-6.029 4.029c-1.726 1.726-3.095 3.774-4.029 6.029s-1.415 4.671-1.415 7.112h37.169z"></path>
</symbol>
<symbol id="bell" viewBox="0 0 32 32">
<path fill="none" stroke-width="3" d="M12.472 28c0.94 0.83 2.175 1.333 3.528 1.333s2.588-0.504 3.528-1.333M24 10.667c0-2.122-0.843-4.157-2.343-5.657s-3.535-2.343-5.657-2.343-4.157 0.843-5.657 2.343c-1.5 1.5-2.343 3.535-2.343 5.657 0 4.12-1.039 6.941-2.2 8.807-0.979 1.574-1.469 2.361-1.451 2.58 0.020 0.243 0.071 0.336 0.267 0.481 0.177 0.131 0.974 0.131 2.569 0.131h17.63c1.595 0 2.392 0 2.569-0.131 0.196-0.145 0.247-0.238 0.267-0.481 0.018-0.22-0.472-1.006-1.451-2.58-1.161-1.866-2.2-4.687-2.2-8.807z"></path>
</symbol>
<symbol id="filter" viewBox="0 0 32 32">
<path  fill="none" d="M29.334 4h-26.667l10.667 12.613v8.72l5.333 2.667v-11.387l10.667-12.613z"></path>
</symbol>
<symbol id="log-out" viewBox="0 0 32 32">
<path fill="none" stroke-width="1.5" d="M11.867 10.080c0.413-4.8 2.88-6.76 8.28-6.76h0.173c5.96 0 8.347 2.387 8.347 8.347v8.693c0 5.96-2.387 8.347-8.347 8.347h-0.173c-5.36 0-7.827-1.933-8.267-6.653"></path>
<path fill="none" stroke-width="1.5" d="M2.667 16h17.173"></path>
<path fill="none" stroke-width="1.5" d="M16.867 11.533l4.467 4.467-4.467 4.467"></path>
</symbol>
<symbol id="radio-button-uncheked" viewBox="0 0 32 32" width="14" height="14">
<path d="M32 16c0 8.837-7.163 16-16 16s-16-7.163-16-16c0-8.837 7.163-16 16-16s16 7.163 16 16z"></path>
</symbol>
<symbol id="radio-button-cheked" viewBox="0 0 14 14" fill="none" >
<rect width="14" height="14" />
<rect x="-24" y="-338" width="350" height="522" rx="8" fill="#FCFCFC"/>
<circle  cx="7" cy="7" r="3" fill="#212121"/>
<circle  cx="7" cy="7" r="6.5"/>
</symbol>




<symbol id="pencil" viewBox="0 0 16 16">
<path fill="none" d="m1.666 14.333 3.7-1.423c.237-.09.355-.136.466-.195.098-.053.192-.114.28-.183.1-.077.189-.166.368-.345L14 4.666A1.886 1.886 0 0 0 11.333 2l-7.52 7.52a4.16 4.16 0 0 0-.346.368 2 2 0 0 0-.182.28c-.06.11-.105.23-.196.466l-1.423 3.7zm0 0 1.373-3.567c.097-.255.146-.383.23-.441a.333.333 0 0 1 .253-.054c.1.02.197.117.39.31l1.507 1.506c.193.194.29.29.309.391a.333.333 0 0 1-.055.253c-.058.084-.186.133-.441.231l-3.568 1.373z"  stroke-width="1"></path>
</symbol>
<symbol id="plus" viewBox="0 0 32 32">
<path  fill="none"  stroke-width="3"  d="M16 6.667v18.667"></path>
<path  fill="none"  stroke-width="3"  d="M6.666 16h18.667"></path>
</symbol>
<symbol id="plus1" viewBox="0 0 32 32">
<path d="M31 12h-11v-11c0-0.552-0.448-1-1-1h-6c-0.552 0-1 0.448-1 1v11h-11c-0.552 0-1 0.448-1 1v6c0 0.552 0.448 1 1 1h11v11c0 0.552 0.448 1 1 1h6c0.552 0 1-0.448 1-1v-11h11c0.552 0 1-0.448 1-1v-6c0-0.552-0.448-1-1-1z"></path>
</symbol>
<symbol id="eye" viewBox="0 0 18 18" fill="none" >
<path d="M.75 9s3-6 8.25-6 8.25 6 8.25 6-3 6-8.25 6S.75 9 .75 9z" stroke-width="1.3" />
<path d="M9 11.25a2.25 2.25 0 1 0 0-4.5 2.25 2.25 0 0 0 0 4.5z" stroke-width="1.3" />
</symbol>
<symbol id="help_circle" viewBox="0 0 20 20" fill="none" >
<path d="M10 18.333A8.333 8.333 0 1 0 10 1.667a8.333 8.333 0 0 0 0 16.666z" stroke-width="1.8"/>
<path d="M7.575 7.5a2.5 2.5 0 0 1 4.859.833c0 1.667-2.5 2.5-2.5 2.5"  stroke-width="1.8" />
<path d="M10 14.167h.012"  stroke-width="1.8" stroke-linecap="round" stroke-linejoin="round"/>
<rect fill="white"/>
</symbol>
</svg>
